PathFileType	4	(X/Y/Z)	1_1_11_p1_0-243_filt_butterworth.trc
DataRate	CameraRate	NumFrames	NumMarkers	Units	OrigDataRate	OrigDataStartFrame	OrigNumFrames
60.0	60.0	6	27	m	60.0	0	243
Frame#	Time	RHip			RKnee			RAnkle			RBigToe			RSmallToe			RHeel			LHip			LKnee			LAnkle			LBigToe			LSmallToe			LHeel			Neck			Head			Nose			RShoulder			RElbow			RWrist			RThumb			RIndex			RPinky			LShoulder			LElbow			LWrist			LThumb			LIndex			LPinky			
		X1	Y1	Z1	X2	Y2	Z2	X3	Y3	Z3	X4	Y4	Z4	X5	Y5	Z5	X6	Y6	Z6	X7	Y7	Z7	X8	Y8	Z8	X9	Y9	Z9	X10	Y10	Z10	X11	Y11	Z11	X12	Y12	Z12	X13	Y13	Z13	X14	Y14	Z14	X15	Y15	Z15	X16	Y16	Z16	X17	Y17	Z17	X18	Y18	Z18	X19	Y19	Z19	X20	Y20	Z20	X21	Y21	Z21	X22	Y22	Z22	X23	Y23	Z23	X24	Y24	Z24	X25	Y25	Z25	X26	Y26	Z26	X27	Y27	Z27	
0	0.0	0.3690776767773559	0.8589677037072532	0.3468059763391951	0.3693936644656387	0.45411418364886824	0.38319644200824227	0.3642231746548733	0.023706500165186432	0.40261574047214416	0.34332535450862434	0.00034281523094433983	0.2074901496154995	0.3973620233566303	-0.014092776898638242	0.24651578604932387	0.3370488088295948	-0.033678389342369656	0.4568949389994647	0.1341897569061467	0.8505625660348323	0.37152012762813036	0.16399710850741916	0.4488734440668373	0.3859239448286343	0.18449686312512806	0.03737596393835296	0.3960420047817362	0.16270585715300573	-0.009254189914940194	0.21797574834159386	0.12511551479732852	0.01585552765452639	0.23292875472745952	0.2050014882504005	-0.021634618936054475	0.4428330773659232	0.24942688144277636	1.526401478723999	0.3505601330837982	0.24768008890103912	1.7836538001942681	0.29656603139087967	0.2454149835140586	1.6423415602309772	0.22766751107989885	0.44421698508739077	1.4379517683169252	0.33259039063242385	0.48546601187753263	1.147682905946421	0.27884706549687316	0.3183241759732201	0.9942047881718732	0.1988363545519232	0.23052196894849838	0.9639998077421512	0.15685195480179576	0.21664564960164182	0.9317775138800798	0.16832842472719511	0.22615266176409388	0.9194708289784046	0.17643318569161834	0.08191256765536756	1.4224294972227032	0.38573571333490175	0.024952907428995266	1.1652546292212302	0.33724491266718726	0.16289740432326902	1.0232148226812297	0.15119375279089908	0.2627332063247302	1.0035629317520254	0.0996798971027549	0.2711747710893953	0.9688813549321914	0.10158733081031317	0.2248253783582627	0.9057501966707306	0.1650563276533576	
1	0.0166666666666666	0.36917442353387003	0.8581547801907251	0.3464988589732617	0.3693925970005396	0.45263012565202654	0.3839265287762365	0.3647076457392792	0.02409090060172222	0.4031979795754485	0.3435872298741306	-0.0004634209190322522	0.20687595815134127	0.39766485248587563	-0.015374976313515209	0.2460610740804556	0.3369107510290602	-0.03319870618238918	0.4570833012153809	0.13400311737338827	0.8521685718919446	0.3701404516434142	0.16532404587007182	0.4502148904021281	0.3824495979906202	0.18523087462471693	0.038954060026068695	0.3936992818864132	0.16338509090116685	-0.009378318880311388	0.22061679430838987	0.12500837781590438	0.014241415566283371	0.23393906988849034	0.20465567033249438	-0.020401257194107777	0.4415114621125612	0.24942152845122345	1.5263922135980945	0.3505105906163861	0.24738307209109156	1.7835942867518468	0.296491799656846	0.24308956875151386	1.642352402189517	0.22651869211754377	0.4441816593432977	1.4383742183869062	0.3329591621708633	0.48400111407753077	1.1458278996971891	0.28319886149559625	0.31716071324194595	0.995454003651599	0.19528327843521964	0.23197872716321927	0.9652052236250909	0.15330955096625956	0.21850118286825715	0.9311113638496233	0.16868092188730652	0.2251034795833161	0.920319198638149	0.1728293491964814	0.08354752944982341	1.424366870941177	0.3874588550561729	0.026657144151739247	1.1650836370896935	0.33855975269698213	0.16324251366673134	1.0212122641370733	0.15208388128506026	0.26396433526416185	0.9990904790403903	0.10000197399983314	0.27195222131963254	0.967640590848734	0.10238632941814671	0.2250095522544598	0.9064816461349112	0.16367572998306484	
2	0.0333333333333333	0.3692562026424431	0.8574684350177841	0.34623344466385636	0.36933740089714	0.4511908408675722	0.38471488319075553	0.3650878612542829	0.024415487087137727	0.40367441765946754	0.34366095254906387	-0.0007219170786739865	0.2067239390388186	0.3976990439728543	-0.015736284815227042	0.24585722312097488	0.3367907536237529	-0.0327841898589537	0.4572552899736803	0.13391593520604733	0.8535406232258029	0.36876174247133675	0.16646386488131606	0.45136647687955533	0.3794108893389357	0.18579093374129635	0.04016426592336496	0.39192155534257794	0.16386903021293867	-0.009598890148065623	0.22278025391014636	0.12500621245226387	0.013776533770479122	0.23417818799870238	0.20442123798011894	-0.019510424913525445	0.44065025899321003	0.2494180699338236	1.5263852399337552	0.3504811159857616	0.24723482133758642	1.7835495451655292	0.2964590003892741	0.2419121143579432	1.6423602180047383	0.22592977152312677	0.4441981363532819	1.438111658480726	0.3329459283633713	0.48306898350209054	1.143982576924585	0.2862430254072261	0.31621269334006497	0.996367298027539	0.19235375460740076	0.23318120703226383	0.966071664553936	0.15041514119608088	0.21932124811545536	0.9308135643547419	0.16872058327303183	0.2242308784945615	0.9212875930702159	0.17041707601733078	0.08467102915317738	1.4254147588316999	0.38871592008588035	0.027846039253988854	1.1649714645852547	0.33946663960669377	0.16336270434067474	1.0199494829793088	0.1523711219379521	0.26384025017625545	0.9970246497171749	0.09997633968094292	0.27150327225008664	0.9668833492858291	0.10228827120274629	0.22502074450392667	0.9067165706128635	0.16322280757689184	
3	0.05	0.36932395150716213	0.8568989037284496	0.3460074198208745	0.36923414860417547	0.44980342519578814	0.38554980249936804	0.36537155685615796	0.024684873196859927	0.4040534624350974	0.3435956791844066	-0.0005639040451367143	0.20690791372699477	0.39755316257603396	-0.015430954164560744	0.24584568035428783	0.3366878668636281	-0.032431688977458004	0.4574109148560842	0.13391648178728285	0.8546956821313606	0.3673999785452965	0.16742944670350723	0.45234246029310676	0.3767814439711457	0.18619255856212535	0.041038885937158265	0.39065846624636175	0.16419176308577327	-0.009875214084670042	0.22449162048998475	0.1250733622190686	0.014215133739786622	0.23383426913097624	0.20428849875097255	-0.018933742589707817	0.4402075867152416	0.24941586585060319	1.5263804361094764	0.3504672587060138	0.2472432046692391	1.783520246842758	0.296470519407667	0.24164655406101593	1.6423651967736488	0.22579244924833936	0.44425191455122137	1.4373580904537422	0.3326520816632875	0.48256336310911474	1.1422641243540164	0.28819721815125054	0.3154949253951875	0.9969837066960845	0.19011356720975217	0.2341122606561736	0.9666899132486264	0.14820452753758528	0.21934764153261824	0.9308346208683697	0.16854767695006778	0.22353584195423382	0.9222990784045827	0.16902352901497655	0.08533957793049798	1.4257445317112805	0.38953641307653974	0.02860569361141967	1.164907423673243	0.34003612896130675	0.16335803439850224	1.019273159961758	0.1522565997022561	0.2627079604367993	0.9968372819384714	0.0996824137070066	0.2701309376717468	0.966524589898808	0.10150263223230659	0.22493921443548784	0.9065934945371357	0.16349450326045684	
4	0.0666666666666666	0.3693786075321142	0.8564364218627406	0.34581847085421163	0.3690889125703815	0.44847497453695684	0.38641958394964265	0.365566468201178	0.024903672506316726	0.4043435216132338	0.3434405664311413	-0.00012061261557627656	0.20730170366493297	0.3973157730538818	-0.014713236122304203	0.24596789296380045	0.3366011409986414	-0.03213805214329601	0.4575501854443136	0.13399302850025377	0.855650710703571	0.3660711382986917	0.16823367249900065	0.45315709743677063	0.3745348869848155	0.18645126717446292	0.041610224374364964	0.38985965569389597	0.16438737751712282	-0.010166601056591784	0.22577638739102635	0.1251741706289802	0.015311466946877971	0.23309547335819245	0.2042477602027536	-0.018642830718054795	0.44014156398602805	0.2494142761615886	1.5263776805037537	0.3504645682912322	0.2474160901147649	1.7835070631909764	0.2965292425315275	0.24205682158840133	1.6423675275932554	0.22599842524487296	0.44432849237099387	1.4363075161613112	0.3321790145239521	0.4823779958565061	1.1407897287108888	0.2892791006471574	0.3150222185349239	0.9973422650536274	0.18862850038355958	0.23475474013549005	0.9671507524291021	0.14671351203709831	0.21882215930912757	0.9311250388634408	0.16826247098411112	0.22301935341873685	0.9232767207712269	0.16847587105022882	0.08560968694685375	1.4255275603969284	0.3899498386806669	0.02902220809970727	1.1648808263189878	0.3403387763258058	0.16332856189361694	1.0190299758382422	0.15194143953065364	0.26091447542158186	0.9980002138603715	0.09919961563894647	0.26813823137560217	0.9664792723430029	0.10023888857502224	0.2248452213779678	0.9062509423402761	0.1642877598593781	
5	0.0833333333333333	0.3694211081213863	0.8560712249606767	0.34566428417376327	0.36890776524449365	0.4472125847913613	0.387312524789148	0.36568033094561664	0.025076498590935498	0.40455300290477264	0.3432447709402512	0.0004767264128461325	0.20777913030169634	0.3970754401648664	-0.013837382449248465	0.24616530813291906	0.336529626278748	-0.03190012796186251	0.4576731113200898	0.13413384672811896	0.8564226710373881	0.36479120016492095	0.16888942343015165	0.4538246451045349	0.37264484347751015	0.18658257766556802	0.041910585541901794	0.3894747647813119	0.16448996150443979	-0.010432361430302456	0.2266600479563925	0.12527298119466054	0.016819784864420775	0.2321499607532316	0.20428932989316045	-0.01860930979396651	0.4404103095129412	0.2494126608268068	1.526376851495081	0.3504685942555064	0.2477613457028796	1.7835106656176276	0.2966380555803587	0.24290685066776935	1.6423673995605645	0.22643939946441907	0.4444133682464785	1.43515393745879	0.33162811939870507	0.48240662470216855	1.1396765767206083	0.2897063338144348	0.3148093818868854	0.9974820084965563	0.18796433827010853	0.23509149757075537	0.967544964815301	0.14597789674094536	0.2179865976343657	0.9316353238128868	0.1679652334408584	0.2226823963444748	0.9241435863001235	0.16860126498389763	0.08553786736731342	1.4249352157056496	0.3899857015507779	0.02918168359452731	1.164880984487817	0.34044513726517583	0.16337434487942232	1.0190666113625821	0.15162676637582606	0.25880680450639226	0.9999852836389647	0.09860736503768455	0.26582816715264257	0.966662356273743	0.09870651629908765	0.2248190246601916	0.9058274384548316	0.1653995201992739	
